PathFileType	4	(X/Y/Z)	E1.trc
DataRate	CameraRate	NumFrames	NumMarkers	Units	OrigDataRate	OrigDataStartFrame	OrigNumFrames
60.0	60.0	9	23	m	60.0	1369	2190
Frame#	Time	NOSE	LEFT_EAR	RIGHT_EAR	LEFT_SHOULDER	RIGHT_SHOULDER	LEFT_ELBOW	RIGHT_ELBOW	LEFT_WRIST	RIGHT_WRIST	LEFT_INDEX	RIGHT_INDEX	LEFT_THUMB	RIGHT_THUMB	LEFT_HIP	RIGHT_HIP	LEFT_KNEE	RIGHT_KNEE	LEFT_ANKLE	RIGHT_ANKLE	LEFT_HEEL	RIGHT_HEEL	LEFT_FOOT_INDEX	RIGHT_FOOT_INDEX
		X1	Y1	Z1	X2	Y2	Z2	X3	Y3	Z3	X4	Y4	Z4	X5	Y5	Z5	X6	Y6	Z6	X7	Y7	Z7	X8	Y8	Z8	X9	Y9	Z9	X10	Y10	Z10	X11	Y11	Z11	X12	Y12	Z12	X13	Y13	Z13	X14	Y14	Z14	X15	Y15	Z15	X16	Y16	Z16	X17	Y17	Z17	X18	Y18	Z18	X19	Y19	Z19	X20	Y20	Z20	X21	Y21	Z21	X22	Y22	Z22	X23	Y23	Z23
1369	22.800000	0.267215	1.387573	0.695471	0.316290	1.417214	0.618953	0.200085	1.419230	0.628942	0.435118	1.232149	0.532760	0.068248	1.239994	0.545404	0.494163	0.982568	0.727578	0.025669	0.968503	0.660999	0.324325	1.120838	0.761538	0.218605	1.153396	0.684269	0.306468	1.191012	0.752334	0.238129	1.235530	0.685382	0.305052	1.172822	0.738079	0.235808	1.216753	0.673650	0.370424	0.780955	0.270924	0.130530	0.789122	0.261374	0.519644	0.494762	0.495387	-0.045217	0.489965	0.454331	0.522902	0.083876	0.382255	-0.029296	0.087330	0.359087	0.500568	0.017784	0.343643	-0.001767	0.022570	0.330379	0.593171	0.011111	0.509776	-0.111875	-0.003864	0.510137
1370	22.816667	0.268958	1.371010	0.697701	0.316874	1.401330	0.622420	0.200177	1.403772	0.632347	0.434724	1.215834	0.536953	0.066881	1.223505	0.548320	0.491764	0.969789	0.734308	0.025833	0.953617	0.666430	0.319358	1.116684	0.756414	0.219601	1.142155	0.687023	0.302539	1.191559	0.744136	0.237228	1.224777	0.682902	0.300264	1.171392	0.730773	0.235638	1.205844	0.673048	0.369857	0.771519	0.267802	0.129573	0.778575	0.260773	0.521842	0.493725	0.501179	-0.045888	0.490385	0.460588	0.522836	0.083757	0.384071	-0.028835	0.087322	0.360745	0.500463	0.018383	0.344064	-0.001295	0.023450	0.331033	0.592199	0.009895	0.511069	-0.112261	-0.004018	0.508515
1371	22.833333	0.269958	1.358863	0.700387	0.317761	1.387857	0.624142	0.200398	1.391184	0.634495	0.433436	1.200258	0.540707	0.066470	1.210944	0.551063	0.490225	0.957210	0.738848	0.024611	0.945242	0.671861	0.312992	1.113920	0.747784	0.220936	1.129188	0.690904	0.299141	1.189211	0.740104	0.238794	1.213478	0.687809	0.297189	1.169491	0.728725	0.236245	1.194625	0.676056	0.369008	0.762120	0.265106	0.129553	0.769231	0.260071	0.524511	0.492078	0.506518	-0.046569	0.490653	0.471898	0.522734	0.082734	0.385208	-0.029374	0.088251	0.363896	0.499455	0.018998	0.345299	-0.001755	0.025839	0.333175	0.592549	0.007326	0.512209	-0.114046	-0.002712	0.507627
1372	22.850000	0.271423	1.344287	0.703392	0.318287	1.373095	0.626806	0.200500	1.376000	0.637159	0.433199	1.187606	0.543706	0.066260	1.195599	0.553806	0.490566	0.944903	0.741898	0.024464	0.934502	0.675647	0.308502	1.101895	0.741956	0.220274	1.120487	0.691893	0.297726	1.176055	0.739208	0.237731	1.202554	0.681301	0.296067	1.157274	0.728070	0.235856	1.182483	0.675698	0.368385	0.752878	0.261471	0.128750	0.759360	0.258807	0.525663	0.492044	0.509124	-0.047408	0.489966	0.480548	0.521781	0.083524	0.386418	-0.033497	0.084534	0.345285	0.498415	0.020078	0.346804	-0.002325	0.026359	0.334160	0.592164	0.009097	0.512789	-0.116878	-0.008534	0.517733
1373	22.866667	0.273396	1.328042	0.706790	0.319320	1.358276	0.630060	0.201295	1.361429	0.641081	0.433043	1.178784	0.546871	0.066205	1.182424	0.556108	0.489637	0.934131	0.747280	0.025213	0.921255	0.688807	0.305321	1.094130	0.746037	0.221154	1.110328	0.696066	0.293899	1.167332	0.737078	0.237854	1.191342	0.682989	0.290473	1.138559	0.725489	0.235571	1.171766	0.676068	0.367237	0.745132	0.258770	0.127518	0.750579	0.256164	0.527084	0.491823	0.511818	-0.048576	0.489403	0.488829	0.520938	0.084487	0.388068	-0.033401	0.083403	0.345653	0.498098	0.021308	0.347493	0.001333	0.022010	0.344970	0.590632	0.012599	0.514625	-0.117116	-0.008013	0.521396
1374	22.883333	0.275262	1.314651	0.710932	0.319942	1.343787	0.632701	0.202702	1.346618	0.645209	0.432182	1.167511	0.549865	0.066903	1.169347	0.559417	0.488509	0.924103	0.758240	0.024818	0.908503	0.693192	0.304185	1.088074	0.746367	0.219365	1.100413	0.699130	0.291278	1.160431	0.732929	0.236867	1.181804	0.685544	0.290935	1.129440	0.728665	0.235266	1.161663	0.675578	0.367267	0.737436	0.257778	0.128409	0.742109	0.255374	0.528092	0.490757	0.515967	-0.049429	0.486443	0.486108	0.520770	0.084798	0.389460	-0.033643	0.081912	0.345913	0.498469	0.021455	0.348554	-0.001084	0.026044	0.345361	0.589724	0.011864	0.518630	-0.122625	0.000536	0.525868
1375	22.900000	0.276424	1.300064	0.714895	0.320215	1.329984	0.636753	0.203143	1.331691	0.650446	0.430313	1.153415	0.553859	0.066459	1.157058	0.563636	0.487482	0.915973	0.759389	0.025954	0.900653	0.699567	0.302987	1.081772	0.748797	0.219950	1.090061	0.705336	0.288922	1.153288	0.732290	0.236862	1.172007	0.689636	0.289754	1.125795	0.730824	0.236116	1.150167	0.680246	0.367427	0.728963	0.256166	0.129327	0.733929	0.253611	0.530396	0.488514	0.520980	-0.050570	0.484512	0.488228	0.520310	0.085594	0.390700	-0.034778	0.080923	0.345592	0.498691	0.022790	0.350149	-0.002676	0.026784	0.347644	0.590620	0.012757	0.516438	-0.124810	0.004375	0.533880
1376	22.916667	0.277828	1.284783	0.717916	0.321335	1.314172	0.639682	0.204111	1.316325	0.654162	0.430138	1.139245	0.559573	0.067040	1.142725	0.566707	0.487131	0.901578	0.763953	0.024913	0.892049	0.704717	0.302454	1.071500	0.752491	0.220847	1.080969	0.713623	0.288485	1.140771	0.733966	0.237926	1.158927	0.695074	0.290013	1.111407	0.734410	0.236709	1.137314	0.688894	0.366804	0.719345	0.253618	0.129464	0.724821	0.251554	0.531199	0.490255	0.523017	-0.051085	0.484199	0.492419	0.519984	0.085026	0.391299	-0.036053	0.079543	0.346355	0.498469	0.023000	0.350843	-0.005614	0.025903	0.349311	0.589617	0.012044	0.513599	-0.124575	0.004416	0.537656
1377	22.933333	0.278907	1.269339	0.719918	0.322333	1.298736	0.644046	0.205132	1.301999	0.656504	0.430484	1.123885	0.564955	0.067519	1.129402	0.571091	0.490896	0.885196	0.766602	0.024079	0.879444	0.705752	0.302682	1.059728	0.755538	0.218657	1.067875	0.715621	0.287430	1.127456	0.736777	0.237647	1.146951	0.698995	0.291173	1.103634	0.738445	0.236711	1.125930	0.695424	0.366715	0.711078	0.251156	0.130047	0.716436	0.248342	0.532404	0.491600	0.525216	-0.052175	0.483169	0.499858	0.518966	0.084083	0.393604	-0.036591	0.082563	0.375760	0.497393	0.023161	0.352843	-0.004436	0.025577	0.350453	0.591875	0.015472	0.531894	-0.123999	0.003793	0.547501
